<mxfile host="65bd71144e">
    <diagram id="lGy_aRZlCkoorKvYk23n" name="full development flow">
        <mxGraphModel dx="5637" dy="7764" grid="1" gridSize="10" guides="1" tooltips="1" connect="1" arrows="1" fold="1" page="1" pageScale="1" pageWidth="3300" pageHeight="4681" math="0" shadow="0">
            <root>
                <mxCell id="0"/>
                <mxCell id="1" parent="0"/>
                <mxCell id="36" value="" style="rounded=1;whiteSpace=wrap;html=1;fontColor=#FFFF00;fillColor=#1A1A1A;strokeColor=none;arcSize=1;fontSize=16;fontStyle=1;labelPosition=right;verticalLabelPosition=middle;align=left;verticalAlign=middle;" parent="1" vertex="1">
                    <mxGeometry x="-20" y="-170" width="650" height="470" as="geometry"/>
                </mxCell>
                <mxCell id="678" value="" style="rounded=1;whiteSpace=wrap;html=1;fontColor=#FFFF00;fillColor=#333333;strokeColor=none;arcSize=2;fontSize=16;fontStyle=1" vertex="1" parent="1">
                    <mxGeometry x="51" y="-98" width="100" height="330" as="geometry"/>
                </mxCell>
                <mxCell id="44" value="" style="rounded=1;whiteSpace=wrap;html=1;fontColor=#FFFF00;fillColor=#333333;strokeColor=none;arcSize=2;fontSize=16;fontStyle=1" parent="1" vertex="1">
                    <mxGeometry x="440" y="-100" width="100" height="330" as="geometry"/>
                </mxCell>
                <mxCell id="20" value="" style="rounded=1;whiteSpace=wrap;html=1;fontColor=#FFFF00;fillColor=#333333;strokeColor=none;arcSize=2;fontSize=16;fontStyle=1" parent="1" vertex="1">
                    <mxGeometry x="250" y="-100" width="100" height="330" as="geometry"/>
                </mxCell>
                <mxCell id="8" style="edgeStyle=none;html=1;endArrow=none;endFill=0;fontStyle=1;fontSize=16;strokeColor=#E6E6E6;" parent="1" source="2" target="4" edge="1">
                    <mxGeometry relative="1" as="geometry"/>
                </mxCell>
                <mxCell id="2" value="&lt;span style=&quot;font-size: 16px;&quot;&gt;home&lt;/span&gt;" style="ellipse;whiteSpace=wrap;html=1;aspect=fixed;strokeColor=none;fillColor=#009900;verticalAlign=bottom;labelPosition=center;verticalLabelPosition=top;align=center;fontSize=16;fontStyle=1;fontColor=#E6E6E6;" parent="1" vertex="1">
                    <mxGeometry x="80" y="-65" width="40" height="40" as="geometry"/>
                </mxCell>
                <mxCell id="9" value="track" style="edgeStyle=none;html=1;endArrow=open;endFill=0;fontStyle=1;fontSize=16;strokeColor=#E6E6E6;labelBackgroundColor=#333333;fontColor=#E6E6E6;" parent="1" source="4" target="29" edge="1">
                    <mxGeometry relative="1" as="geometry"/>
                </mxCell>
                <mxCell id="4" value="&lt;span style=&quot;font-size: 16px;&quot;&gt;item&lt;/span&gt;" style="ellipse;whiteSpace=wrap;html=1;aspect=fixed;strokeColor=none;fillColor=#009900;verticalAlign=middle;labelPosition=left;verticalLabelPosition=middle;align=right;fontSize=16;fontStyle=1;fontColor=#E6E6E6;" parent="1" vertex="1">
                    <mxGeometry x="80" y="45" width="40" height="40" as="geometry"/>
                </mxCell>
                <mxCell id="15" value="refine" style="edgeStyle=none;html=1;endArrow=none;endFill=0;fontStyle=1;fontSize=16;strokeColor=#E6E6E6;labelBackgroundColor=#1A1A1A;fontColor=#E6E6E6;" parent="1" source="7" target="13" edge="1">
                    <mxGeometry relative="1" as="geometry"/>
                </mxCell>
                <mxCell id="34" value="validate" style="edgeStyle=none;html=1;startArrow=none;startFill=0;endArrow=none;endFill=0;fontSize=16;fontStyle=1;strokeColor=#E6E6E6;labelBackgroundColor=#1A1A1A;fontColor=#E6E6E6;" parent="1" source="5" target="4" edge="1">
                    <mxGeometry relative="1" as="geometry"/>
                </mxCell>
                <mxCell id="5" value="&lt;span style=&quot;font-size: 16px&quot;&gt;problem&lt;br&gt;analysis&lt;br style=&quot;font-size: 16px&quot;&gt;&lt;/span&gt;" style="ellipse;whiteSpace=wrap;html=1;aspect=fixed;strokeColor=none;fillColor=#009900;verticalAlign=top;labelPosition=center;verticalLabelPosition=bottom;align=center;fontSize=16;fontStyle=1;fontColor=#E6E6E6;" parent="1" vertex="1">
                    <mxGeometry x="280" y="160.35" width="40" height="40" as="geometry"/>
                </mxCell>
                <mxCell id="12" value="refine" style="edgeStyle=none;html=1;endArrow=none;endFill=0;fontStyle=1;fontSize=16;strokeColor=#E6E6E6;labelBackgroundColor=#333333;fontColor=#E6E6E6;" parent="1" source="7" target="5" edge="1">
                    <mxGeometry relative="1" as="geometry"/>
                </mxCell>
                <mxCell id="7" value="&lt;span style=&quot;font-size: 16px&quot;&gt;beaviour&lt;br&gt;design&lt;br style=&quot;font-size: 16px&quot;&gt;&lt;/span&gt;" style="ellipse;whiteSpace=wrap;html=1;aspect=fixed;strokeColor=none;fillColor=#009900;verticalAlign=bottom;labelPosition=center;verticalLabelPosition=top;align=center;fontSize=16;fontStyle=1;fontColor=#E6E6E6;" parent="1" vertex="1">
                    <mxGeometry x="280" y="-65" width="40" height="40" as="geometry"/>
                </mxCell>
                <mxCell id="13" value="&lt;span style=&quot;font-size: 16px&quot;&gt;technical requirements&lt;br style=&quot;font-size: 16px&quot;&gt;&lt;/span&gt;" style="ellipse;whiteSpace=wrap;html=1;aspect=fixed;strokeColor=none;fillColor=#009900;verticalAlign=bottom;labelPosition=center;verticalLabelPosition=top;align=center;fontSize=16;fontStyle=1;fontColor=#E6E6E6;" parent="1" vertex="1">
                    <mxGeometry x="470" y="-65" width="40" height="40" as="geometry"/>
                </mxCell>
                <mxCell id="30" value="specify" style="edgeStyle=none;html=1;endArrow=none;endFill=0;fontSize=16;fontStyle=1;strokeColor=#E6E6E6;labelBackgroundColor=#1A1A1A;fontColor=#E6E6E6;startArrow=open;startFill=0;" parent="1" source="29" target="5" edge="1">
                    <mxGeometry relative="1" as="geometry"/>
                </mxCell>
                <mxCell id="29" value="&lt;span style=&quot;font-size: 16px;&quot;&gt;backlog&lt;/span&gt;" style="ellipse;whiteSpace=wrap;html=1;aspect=fixed;strokeColor=none;fillColor=#009900;verticalAlign=top;labelPosition=center;verticalLabelPosition=bottom;align=center;fontSize=16;fontStyle=1;fontColor=#E6E6E6;" parent="1" vertex="1">
                    <mxGeometry x="80" y="160" width="40" height="40" as="geometry"/>
                </mxCell>
                <mxCell id="52" value="refine" style="edgeStyle=none;html=1;startArrow=none;startFill=0;endArrow=none;endFill=0;strokeColor=#E6E6E6;fontSize=16;labelBackgroundColor=#333333;fontColor=#E6E6E6;" parent="1" source="49" target="13" edge="1">
                    <mxGeometry relative="1" as="geometry"/>
                </mxCell>
                <mxCell id="49" value="&lt;span style=&quot;font-size: 16px&quot;&gt;development&lt;br style=&quot;font-size: 16px&quot;&gt;&lt;/span&gt;" style="ellipse;whiteSpace=wrap;html=1;aspect=fixed;strokeColor=none;fillColor=#009900;verticalAlign=middle;labelPosition=right;verticalLabelPosition=middle;align=left;fontSize=16;fontStyle=1;fontColor=#E6E6E6;" parent="1" vertex="1">
                    <mxGeometry x="470" y="45" width="40" height="40" as="geometry"/>
                </mxCell>
                <mxCell id="63" value="&lt;font style=&quot;font-size: 16px&quot;&gt;validate&lt;/font&gt;" style="edgeStyle=none;html=1;endArrow=none;endFill=0;strokeColor=#E6E6E6;startArrow=open;startFill=0;labelBackgroundColor=#333333;fontColor=#E6E6E6;" parent="1" source="49" target="62" edge="1">
                    <mxGeometry relative="1" as="geometry">
                        <mxPoint x="30" y="-45" as="sourcePoint"/>
                    </mxGeometry>
                </mxCell>
                <mxCell id="62" value="&lt;span style=&quot;font-size: 16px&quot;&gt;samples&lt;br style=&quot;font-size: 16px&quot;&gt;&lt;/span&gt;" style="ellipse;whiteSpace=wrap;html=1;aspect=fixed;strokeColor=none;fillColor=#009900;verticalAlign=top;labelPosition=center;verticalLabelPosition=bottom;align=center;fontSize=16;fontStyle=1;fontColor=#E6E6E6;" parent="1" vertex="1">
                    <mxGeometry x="470" y="155" width="40" height="40" as="geometry"/>
                </mxCell>
            </root>
        </mxGraphModel>
    </diagram>
</mxfile>